<mxfile host="65bd71144e">
    <diagram id="kU77cxGkO1zy3yDQpG8J" name="Page-1">
        <mxGraphModel dx="650" dy="478" grid="1" gridSize="10" guides="1" tooltips="1" connect="1" arrows="1" fold="1" page="1" pageScale="1" pageWidth="850" pageHeight="1100" math="0" shadow="0">
            <root>
                <mxCell id="0"/>
                <mxCell id="1" parent="0"/>
                <mxCell id="uGEogNd32ZGHxPRoJBDI-1" style="edgeStyle=orthogonalEdgeStyle;rounded=0;orthogonalLoop=1;jettySize=auto;html=1;entryX=0.5;entryY=0;entryDx=0;entryDy=0;fontSize=15;" parent="1" source="uGEogNd32ZGHxPRoJBDI-2" target="uGEogNd32ZGHxPRoJBDI-4" edge="1">
                    <mxGeometry relative="1" as="geometry"/>
                </mxCell>
                <mxCell id="uGEogNd32ZGHxPRoJBDI-2" value="&lt;b&gt;START&lt;/b&gt;" style="ellipse;whiteSpace=wrap;html=1;" parent="1" vertex="1">
                    <mxGeometry x="360" y="70" width="120" height="70" as="geometry"/>
                </mxCell>
                <mxCell id="uGEogNd32ZGHxPRoJBDI-3" style="edgeStyle=orthogonalEdgeStyle;rounded=0;orthogonalLoop=1;jettySize=auto;html=1;exitX=0.5;exitY=1;exitDx=0;exitDy=0;entryX=0.5;entryY=0;entryDx=0;entryDy=0;fontSize=15;" parent="1" source="uGEogNd32ZGHxPRoJBDI-4" target="uGEogNd32ZGHxPRoJBDI-7" edge="1">
                    <mxGeometry relative="1" as="geometry"/>
                </mxCell>
                <mxCell id="uGEogNd32ZGHxPRoJBDI-4" value="&lt;b&gt;INPUT TEXT&lt;/b&gt;" style="shape=parallelogram;perimeter=parallelogramPerimeter;whiteSpace=wrap;html=1;fixedSize=1;" parent="1" vertex="1">
                    <mxGeometry x="360" y="170" width="120" height="60" as="geometry"/>
                </mxCell>
                <mxCell id="uGEogNd32ZGHxPRoJBDI-5" value="&lt;b&gt;&lt;font style=&quot;font-size: 15px;&quot;&gt;FLOWCHART TEXT POLINDROM JS&lt;/font&gt;&lt;/b&gt;" style="text;html=1;align=center;verticalAlign=middle;resizable=0;points=[];autosize=1;strokeColor=none;fillColor=none;" parent="1" vertex="1">
                    <mxGeometry x="280" y="30" width="280" height="30" as="geometry"/>
                </mxCell>
                <mxCell id="uGEogNd32ZGHxPRoJBDI-6" value="" style="edgeStyle=none;html=1;" parent="1" source="uGEogNd32ZGHxPRoJBDI-7" target="uGEogNd32ZGHxPRoJBDI-26" edge="1">
                    <mxGeometry relative="1" as="geometry"/>
                </mxCell>
                <mxCell id="uGEogNd32ZGHxPRoJBDI-7" value="&lt;b&gt;covert to lower case&lt;/b&gt;" style="rounded=0;whiteSpace=wrap;html=1;fontSize=15;" parent="1" vertex="1">
                    <mxGeometry x="345" y="260" width="150" height="60" as="geometry"/>
                </mxCell>
                <mxCell id="uGEogNd32ZGHxPRoJBDI-8" style="edgeStyle=orthogonalEdgeStyle;rounded=0;orthogonalLoop=1;jettySize=auto;html=1;exitX=0.5;exitY=1;exitDx=0;exitDy=0;entryX=0.5;entryY=0;entryDx=0;entryDy=0;fontSize=15;" parent="1" source="uGEogNd32ZGHxPRoJBDI-9" target="uGEogNd32ZGHxPRoJBDI-12" edge="1">
                    <mxGeometry relative="1" as="geometry"/>
                </mxCell>
                <mxCell id="uGEogNd32ZGHxPRoJBDI-9" value="&lt;b&gt;i =&amp;nbsp;input.lenght - 1&lt;/b&gt;" style="rounded=0;whiteSpace=wrap;html=1;fontSize=15;" parent="1" vertex="1">
                    <mxGeometry x="345" y="470" width="150" height="70" as="geometry"/>
                </mxCell>
                <mxCell id="uGEogNd32ZGHxPRoJBDI-10" value="true" style="edgeStyle=none;html=1;fontSize=15;" parent="1" source="uGEogNd32ZGHxPRoJBDI-12" target="uGEogNd32ZGHxPRoJBDI-14" edge="1">
                    <mxGeometry relative="1" as="geometry"/>
                </mxCell>
                <mxCell id="uGEogNd32ZGHxPRoJBDI-11" value="false" style="edgeStyle=none;html=1;fontSize=15;entryX=0.167;entryY=0.25;entryDx=0;entryDy=0;entryPerimeter=0;" parent="1" source="uGEogNd32ZGHxPRoJBDI-12" target="uGEogNd32ZGHxPRoJBDI-17" edge="1">
                    <mxGeometry x="-0.6372" relative="1" as="geometry">
                        <mxPoint x="360" y="790" as="targetPoint"/>
                        <Array as="points">
                            <mxPoint x="200" y="600"/>
                        </Array>
                        <mxPoint as="offset"/>
                    </mxGeometry>
                </mxCell>
                <mxCell id="uGEogNd32ZGHxPRoJBDI-12" value="&lt;b&gt;&amp;nbsp;i &amp;gt;= 0&amp;nbsp;&lt;/b&gt;" style="rhombus;whiteSpace=wrap;html=1;fontSize=15;" parent="1" vertex="1">
                    <mxGeometry x="365" y="560" width="110" height="80" as="geometry"/>
                </mxCell>
                <mxCell id="uGEogNd32ZGHxPRoJBDI-13" value="loop" style="edgeStyle=none;html=1;fontSize=15;" parent="1" source="uGEogNd32ZGHxPRoJBDI-14" edge="1">
                    <mxGeometry relative="1" as="geometry">
                        <mxPoint x="480" y="600" as="targetPoint"/>
                        <Array as="points">
                            <mxPoint x="580" y="710"/>
                            <mxPoint x="580" y="600"/>
                        </Array>
                    </mxGeometry>
                </mxCell>
                <mxCell id="uGEogNd32ZGHxPRoJBDI-14" value="&lt;b&gt;result += input[i]&amp;nbsp;&lt;/b&gt;" style="rounded=0;whiteSpace=wrap;html=1;fontSize=15;" parent="1" vertex="1">
                    <mxGeometry x="340" y="680" width="160" height="60" as="geometry"/>
                </mxCell>
                <mxCell id="uGEogNd32ZGHxPRoJBDI-15" value="true" style="edgeStyle=orthogonalEdgeStyle;rounded=0;orthogonalLoop=1;jettySize=auto;html=1;exitX=0;exitY=0.5;exitDx=0;exitDy=0;entryX=0.5;entryY=0;entryDx=0;entryDy=0;fontSize=15;" parent="1" source="uGEogNd32ZGHxPRoJBDI-17" edge="1">
                    <mxGeometry relative="1" as="geometry">
                        <mxPoint x="290" y="870" as="targetPoint"/>
                    </mxGeometry>
                </mxCell>
                <mxCell id="uGEogNd32ZGHxPRoJBDI-16" value="false" style="edgeStyle=orthogonalEdgeStyle;rounded=0;orthogonalLoop=1;jettySize=auto;html=1;fontSize=15;entryX=0.5;entryY=0;entryDx=0;entryDy=0;" parent="1" source="uGEogNd32ZGHxPRoJBDI-17" target="uGEogNd32ZGHxPRoJBDI-21" edge="1">
                    <mxGeometry relative="1" as="geometry">
                        <mxPoint x="540" y="850" as="targetPoint"/>
                        <Array as="points">
                            <mxPoint x="540" y="810"/>
                        </Array>
                    </mxGeometry>
                </mxCell>
                <mxCell id="uGEogNd32ZGHxPRoJBDI-17" value="&lt;b&gt;if result == input ?&amp;nbsp;&lt;/b&gt;" style="rhombus;whiteSpace=wrap;html=1;fontSize=15;" parent="1" vertex="1">
                    <mxGeometry x="330" y="770" width="180" height="80" as="geometry"/>
                </mxCell>
                <mxCell id="uGEogNd32ZGHxPRoJBDI-18" style="edgeStyle=orthogonalEdgeStyle;rounded=0;orthogonalLoop=1;jettySize=auto;html=1;entryX=0;entryY=0.5;entryDx=0;entryDy=0;fontSize=15;" parent="1" edge="1">
                    <mxGeometry relative="1" as="geometry">
                        <mxPoint x="350" y="1000" as="targetPoint"/>
                        <Array as="points">
                            <mxPoint x="290" y="1000"/>
                        </Array>
                        <mxPoint x="290" y="930" as="sourcePoint"/>
                    </mxGeometry>
                </mxCell>
                <mxCell id="uGEogNd32ZGHxPRoJBDI-19" value="&lt;b&gt;output &quot;polindrom&quot;&lt;/b&gt;" style="shape=parallelogram;perimeter=parallelogramPerimeter;whiteSpace=wrap;html=1;fixedSize=1;fontSize=15;" parent="1" vertex="1">
                    <mxGeometry x="230" y="870" width="120" height="60" as="geometry"/>
                </mxCell>
                <mxCell id="uGEogNd32ZGHxPRoJBDI-20" style="edgeStyle=orthogonalEdgeStyle;rounded=0;orthogonalLoop=1;jettySize=auto;html=1;entryX=1;entryY=0.5;entryDx=0;entryDy=0;fontSize=15;" parent="1" source="uGEogNd32ZGHxPRoJBDI-21" edge="1">
                    <mxGeometry relative="1" as="geometry">
                        <mxPoint x="470" y="1000" as="targetPoint"/>
                        <Array as="points">
                            <mxPoint x="540" y="1000"/>
                        </Array>
                    </mxGeometry>
                </mxCell>
                <mxCell id="uGEogNd32ZGHxPRoJBDI-21" value="&lt;b&gt;output &quot;not polindrom&quot;&lt;/b&gt;" style="shape=parallelogram;perimeter=parallelogramPerimeter;whiteSpace=wrap;html=1;fixedSize=1;fontSize=15;" parent="1" vertex="1">
                    <mxGeometry x="480" y="870" width="120" height="60" as="geometry"/>
                </mxCell>
                <mxCell id="uGEogNd32ZGHxPRoJBDI-22" value="&lt;b&gt;END&lt;/b&gt;" style="ellipse;whiteSpace=wrap;html=1;fontSize=15;" parent="1" vertex="1">
                    <mxGeometry x="350" y="960" width="120" height="80" as="geometry"/>
                </mxCell>
                <mxCell id="uGEogNd32ZGHxPRoJBDI-23" value="&lt;span&gt;Algoritma&lt;br&gt;1. mulai&lt;br&gt;2. memasukkan input text&lt;br&gt;&lt;/span&gt;&lt;div&gt;&lt;span&gt;&lt;span&gt;3. mengubah input menjadi huruf kecil&lt;/span&gt;&lt;/span&gt;&lt;/div&gt;&lt;div&gt;&lt;span&gt;&lt;span&gt;4. apabila panjang input lebih dari 2&lt;/span&gt;&lt;/span&gt;&lt;/div&gt;&lt;div&gt;&lt;span&gt;&lt;span&gt;5. jika benar maka akan selesai, jika tidak akan lanjut&lt;/span&gt;&lt;/span&gt;&lt;/div&gt;&lt;div&gt;&lt;span&gt;&lt;span&gt;6. membuat variable i = panjang input kurang 1&lt;/span&gt;&lt;span&gt;.&lt;/span&gt;&lt;/span&gt;&lt;/div&gt;&lt;div&gt;&lt;span&gt;&lt;span&gt;7. jika var i lebih dari sama dengan 0&amp;nbsp;&lt;/span&gt;&lt;/span&gt;&lt;/div&gt;&lt;div&gt;&lt;span&gt;&lt;span&gt;8. jika benar var result akan ditambah&lt;/span&gt;&lt;/span&gt;&lt;/div&gt;&lt;div&gt;&lt;span&gt;&lt;span&gt;dengan input indeks ke i lalu decrement&lt;/span&gt;&lt;/span&gt;&lt;/div&gt;&lt;div&gt;&lt;span&gt;&lt;span&gt;9. jika salah lanjut proses&lt;/span&gt;&lt;/span&gt;&lt;/div&gt;&lt;div&gt;&lt;span&gt;&lt;span&gt;10. kemudian apabila result sama dengan input&lt;/span&gt;&lt;/span&gt;&lt;/div&gt;&lt;div&gt;&lt;span&gt;&lt;span&gt;11. jika benar output &quot;polindrom&quot;&lt;/span&gt;&lt;/span&gt;&lt;/div&gt;&lt;div&gt;&lt;span&gt;&lt;span&gt;12. jika salah output &quot;not polindrom&quot;&lt;/span&gt;&lt;/span&gt;&lt;/div&gt;&lt;div&gt;&lt;span&gt;&lt;span&gt;13. selesai&lt;/span&gt;&lt;/span&gt;&lt;/div&gt;" style="text;html=1;align=left;verticalAlign=middle;resizable=0;points=[];autosize=1;strokeColor=none;fillColor=none;fontSize=15;fontStyle=1" parent="1" vertex="1">
                    <mxGeometry x="15" y="30" width="390" height="280" as="geometry"/>
                </mxCell>
                <mxCell id="uGEogNd32ZGHxPRoJBDI-24" value="true" style="edgeStyle=none;html=1;fontSize=15;fontStyle=1" parent="1" source="uGEogNd32ZGHxPRoJBDI-26" edge="1">
                    <mxGeometry x="-0.7658" relative="1" as="geometry">
                        <mxPoint x="350" y="1000" as="targetPoint"/>
                        <Array as="points">
                            <mxPoint x="90" y="390"/>
                            <mxPoint x="90" y="890"/>
                            <mxPoint x="90" y="1000"/>
                        </Array>
                        <mxPoint as="offset"/>
                    </mxGeometry>
                </mxCell>
                <mxCell id="uGEogNd32ZGHxPRoJBDI-25" value="false" style="edgeStyle=none;html=1;fontSize=15;" parent="1" source="uGEogNd32ZGHxPRoJBDI-26" target="uGEogNd32ZGHxPRoJBDI-9" edge="1">
                    <mxGeometry relative="1" as="geometry"/>
                </mxCell>
                <mxCell id="uGEogNd32ZGHxPRoJBDI-26" value="&amp;nbsp;input &amp;lt;= 2" style="rhombus;whiteSpace=wrap;html=1;fontSize=15;fontStyle=1" parent="1" vertex="1">
                    <mxGeometry x="350" y="350" width="140" height="80" as="geometry"/>
                </mxCell>
                <mxCell id="2" value="&lt;font style=&quot;font-size: 14px;&quot;&gt;&lt;b style=&quot;font-size: 14px;&quot;&gt;i --&lt;/b&gt;&lt;/font&gt;" style="whiteSpace=wrap;html=1;fontSize=14;" vertex="1" parent="1">
                    <mxGeometry x="520" y="620" width="120" height="60" as="geometry"/>
                </mxCell>
            </root>
        </mxGraphModel>
    </diagram>
</mxfile>